<?xml version="1.0" encoding="UTF-8" standalone="no"?>
<svg
   xmlns:dc="http://purl.org/dc/elements/1.1/"
   xmlns:cc="http://creativecommons.org/ns#"
   xmlns:rdf="http://www.w3.org/1999/02/22-rdf-syntax-ns#"
   xmlns:svg="http://www.w3.org/2000/svg"
   xmlns="http://www.w3.org/2000/svg"
   xmlns:sodipodi="http://sodipodi.sourceforge.net/DTD/sodipodi-0.dtd"
   xmlns:inkscape="http://www.inkscape.org/namespaces/inkscape"
   sodipodi:docname="card31.svg"
   inkscape:version="1.0 (4035a4fb49, 2020-05-01)"
   id="svg8"
   version="1.1"
   viewBox="0 0 95 143"
   height="143mm"
   width="95mm">
  <defs
     id="defs2" />
  <sodipodi:namedview
     inkscape:window-maximized="0"
     inkscape:window-y="17"
     inkscape:window-x="240"
     inkscape:window-height="967"
     inkscape:window-width="1577"
     showgrid="false"
     inkscape:document-rotation="0"
     inkscape:current-layer="g15173"
     inkscape:document-units="mm"
     inkscape:cy="319.36927"
     inkscape:cx="347.8321"
     inkscape:zoom="0.98994949"
     inkscape:pageshadow="2"
     inkscape:pageopacity="0.0"
     borderopacity="1.0"
     bordercolor="#666666"
     pagecolor="#ffffff"
     id="base" />
  <metadata
     id="metadata5">
    <rdf:RDF>
      <cc:Work
         rdf:about="">
        <dc:format>image/svg+xml</dc:format>
        <dc:type
           rdf:resource="http://purl.org/dc/dcmitype/StillImage" />
        <dc:title></dc:title>
      </cc:Work>
    </rdf:RDF>
  </metadata>
  <g
     id="layer1"
     inkscape:groupmode="layer"
     inkscape:label="Calque 1">
    <g
       transform="matrix(0.26458333,0,0,0.26458333,5.8514384e-7,-135.56191)"
       id="g540">
      <g
         transform="translate(0.81730886,0.72088049)"
         id="g568">
        <g
           id="g15385">
          <g
             id="g2065">
            <g
               id="g1415"
               fill="#ff5555">
              <g
                 id="g12769">
                <g
                   id="g5165"
                   transform="translate(0.49999417,-0.49999931)">
                  <g
                     id="g1255"
                     transform="translate(-0.49999691,0.50000051)">
                    <g
                       id="g1313"
                       transform="translate(-0.19794838,0.00605326)">
                      <g
                         id="g1345"
                         transform="translate(0.19794908,-0.00604905)">
                        <g
                           id="g15507">
                          <g
                             id="g3473"
                             transform="translate(-1.0101538)">
                            <g
                               id="g12055"
                               transform="translate(1.0101527)">
                              <g
                                 id="g10671"
                                 stroke="#000000">
                                <g
                                   id="g6761"
                                   transform="translate(0.49999995,-0.50000536)">
                                <g
                                   id="g5177"
                                   stroke="#000000">
                                <g
                                   id="g895"
                                   transform="translate(-29.999995,1170)">
                                <g
                                   id="g1053"
                                   transform="translate(29.499993,-1169.5)">
                                <g
                                   id="g1079">
                                <g
                                   id="g1107"
                                   transform="translate(1.0101543)">
                                <g
                                   id="g1137"
                                   transform="translate(-1.0101518)">
                                <g
                                   id="g15425">
                                <g
                                   id="g2517">
                                <g
                                   id="g7781">
                                <g
                                   id="g9543">
                                <g
                                   id="g7793"
                                   stroke="#000000">
                                <g
                                   id="g15343">
                                <g
                                   id="g15253"
                                   transform="translate(1.010152)">
                                <g
                                   id="g15229"
                                   transform="translate(-1.0101516)">
                                <g
                                   id="g15173">
                                <path
                                   style="fill:#000000"
                                   id="path15149"
                                   d="m 30,542.36 c -5.54,0 -10,4.46 -10,10 v 5 c 0,3 1.323,5.67 3.406,7.5 -2.083,1.83 -3.406,4.496 -3.406,7.5 v 10 c 0,5.54 4.46,10 10,10 5.54,0 10,-4.46 10,-10 v -10 c 0,-3 -1.323,-5.67 -3.406,-7.5 2.083,-1.83 3.406,-4.496 3.406,-7.5 v -5 c 0,-5.54 -4.46,-10 -10,-10 m 0,5 c 2.77,0 5,2.23 5,5 v 5 c 0,2.77 -2.23,5 -5,5 -2.77,0 -5,-2.23 -5,-5 v -5 c 0,-2.77 2.23,-5 5,-5 m 0,20 c 2.77,0 5,2.23 5,5 v 10 c 0,2.77 -2.23,5 -5,5 -2.77,0 -5,-2.23 -5,-5 v -10 c 0,-2.77 2.23,-5 5,-5" />
                                <path
                                   style="fill:#000000"
                                   id="path15151"
                                   d="m 330,1022.4 c -5.54,0 -10,-4.46 -10,-10 v -5 c 0,-3 1.323,-5.67 3.406,-7.5 -2.083,-1.83 -3.406,-4.496 -3.406,-7.5 v -10 c 0,-5.54 4.46,-10 10,-10 5.54,0 10,4.46 10,10 v 10 c 0,3 -1.323,5.67 -3.406,7.5 2.083,1.83 3.406,4.496 3.406,7.5 v 5 c 0,5.54 -4.46,10 -10,10 m 0,-5 c 2.77,0 5,-2.23 5,-5 v -5 c 0,-2.77 -2.23,-5 -5,-5 -2.77,0 -5,2.23 -5,5 v 5 c 0,2.77 2.23,5 5,5 m 0,-20 c 2.77,0 5,-2.23 5,-5 v -10 c 0,-2.77 -2.23,-5 -5,-5 -2.77,0 -5,2.23 -5,5 v 10 c 0,2.77 2.23,5 5,5" />
                                <path
                                   style="fill:#000000"
                                   id="path15153"
                                   d="m 100,562.36 c -1.333,6.667 -2.855,8.392 -5.333,12 -2.135,3.109 -5.122,5.562 -8,8 -2.917,2.471 -6.248,4.408 -9.333,6.667 -3.586,2.625 -7.819,4.588 -10.667,8 -3.184,3.815 -6.667,8.364 -6.667,13.333 0,3.975 2.408,7.975 5.333,10.667 3.523,3.241 8.548,5.444 13.333,5.333 5.369,-0.124 10.8,-2.94 14.667,-6.667 2.862,-2.758 5.333,-10.667 5.333,-10.667 v 2.667 c 0,1.333 -0.133,7.29 -1.333,10.667 -1.404,3.951 -3.83,7.579 -6.667,10.667 -3.01,3.273 -10.667,8 -10.667,8 v 1.333 c 0,0 10.612,-2.221 16,-2.667 2.658,-0.22 5.342,-0.22 8,0 5.388,0.446 16,2.667 16,2.667 v -1.333 c 0,0 -7.66,-4.727 -10.667,-8 -2.836,-3.088 -5.263,-6.716 -6.667,-10.667 -1.2,-3.376 -1.333,-10.667 -1.333,-10.667 v -2.667 c 0,0 2.471,7.908 5.333,10.667 3.867,3.726 9.298,6.543 14.667,6.667 4.786,0.11 9.811,-2.092 13.333,-5.333 2.925,-2.692 5.333,-6.691 5.333,-10.667 0,-4.969 -3.483,-9.518 -6.667,-13.333 -2.848,-3.412 -7.08,-5.375 -10.667,-8 -3.085,-2.258 -6.416,-4.195 -9.333,-6.667 -2.878,-2.438 -5.865,-4.891 -8,-8 -2.478,-3.608 -4,-5.333 -5.333,-12" />
                                <path
                                   style="fill:#000000"
                                   id="path15155"
                                   d="m 260,562.36 c -1.333,6.667 -2.855,8.392 -5.333,12 -2.135,3.109 -5.122,5.562 -8,8 -2.917,2.471 -6.248,4.408 -9.333,6.667 -3.586,2.625 -7.819,4.588 -10.667,8 -3.184,3.815 -6.667,8.364 -6.667,13.333 0,3.975 2.408,7.975 5.333,10.667 3.523,3.241 8.548,5.444 13.333,5.333 5.369,-0.124 10.8,-2.94 14.667,-6.667 2.862,-2.758 5.333,-10.667 5.333,-10.667 v 2.667 c 0,1.333 -0.133,7.29 -1.333,10.667 -1.404,3.951 -3.83,7.579 -6.667,10.667 -3.01,3.273 -10.667,8 -10.667,8 v 1.333 c 0,0 10.612,-2.221 16,-2.667 2.658,-0.22 5.342,-0.22 8,0 5.388,0.446 16,2.667 16,2.667 v -1.333 c 0,0 -7.66,-4.727 -10.667,-8 -2.836,-3.088 -5.263,-6.716 -6.667,-10.667 -1.2,-3.376 -1.333,-10.667 -1.333,-10.667 v -2.667 c 0,0 2.471,7.908 5.333,10.667 3.867,3.726 9.298,6.543 14.667,6.667 4.786,0.11 9.811,-2.092 13.333,-5.333 2.925,-2.692 5.333,-6.691 5.333,-10.667 0,-4.969 -3.483,-9.518 -6.667,-13.333 -2.848,-3.412 -7.08,-5.375 -10.667,-8 -3.085,-2.258 -6.416,-4.195 -9.333,-6.667 -2.878,-2.438 -5.865,-4.891 -8,-8 -2.478,-3.608 -4,-5.333 -5.333,-12" />
                                <path
                                   style="fill:#000000"
                                   id="path15157"
                                   d="m 180,652.36 c -1.333,6.667 -2.855,8.392 -5.333,12 -2.135,3.109 -5.122,5.563 -8,8 -2.917,2.472 -6.248,4.41 -9.333,6.667 -3.586,2.625 -7.819,4.588 -10.667,8 -3.184,3.814 -6.667,8.364 -6.667,13.333 0,3.976 2.408,7.974 5.333,10.667 3.523,3.241 8.548,5.444 13.333,5.333 5.369,-0.12 10.8,-2.94 14.667,-6.667 2.862,-2.759 5.333,-10.667 5.333,-10.667 v 2.667 c 0,1.333 -0.133,7.291 -1.333,10.667 -1.404,3.951 -3.83,7.579 -6.667,10.667 -3.01,3.274 -10.667,8 -10.667,8 v 1.333 c 0,0 10.612,-2.22 16,-2.667 2.658,-0.22 5.342,-0.22 8,0 5.388,0.446 16,2.667 16,2.667 v -1.333 c 0,0 -7.66,-4.726 -10.667,-8 -2.836,-3.088 -5.263,-6.716 -6.667,-10.667 -1.2,-3.376 -1.333,-10.667 -1.333,-10.667 v -2.667 c 0,0 2.471,7.908 5.333,10.667 3.867,3.726 9.298,6.543 14.667,6.667 4.786,0.107 9.811,-2.092 13.333,-5.333 2.925,-2.692 5.333,-6.691 5.333,-10.667 0,-4.969 -3.483,-9.519 -6.667,-13.333 -2.848,-3.412 -7.08,-5.375 -10.667,-8 -3.085,-2.257 -6.416,-4.195 -9.333,-6.667 -2.878,-2.437 -5.865,-4.891 -8,-8 -2.478,-3.608 -4,-5.333 -5.333,-12" />
                                <path
                                   style="fill:#000000"
                                   id="path15159"
                                   d="m 100,742.36 c -1.333,6.667 -2.855,8.392 -5.333,12 -2.135,3.109 -5.122,5.562 -8,8 -2.917,2.471 -6.248,4.408 -9.333,6.667 -3.586,2.625 -7.819,4.588 -10.667,8 -3.184,3.815 -6.667,8.364 -6.667,13.333 0,3.975 2.408,7.975 5.333,10.667 3.523,3.241 8.548,5.444 13.333,5.333 5.369,-0.124 10.8,-2.94 14.667,-6.667 2.862,-2.758 5.333,-10.667 5.333,-10.667 v 2.667 c 0,1.333 -0.133,7.29 -1.333,10.667 -1.404,3.951 -3.83,7.579 -6.667,10.667 -3.01,3.273 -10.667,8 -10.667,8 v 1.333 c 0,0 10.612,-2.221 16,-2.667 2.658,-0.22 5.342,-0.22 8,0 5.388,0.446 16,2.667 16,2.667 v -1.333 c 0,0 -7.66,-4.727 -10.667,-8 -2.836,-3.088 -5.263,-6.716 -6.667,-10.667 -1.2,-3.376 -1.333,-10.667 -1.333,-10.667 v -2.667 c 0,0 2.471,7.908 5.333,10.667 3.867,3.726 9.298,6.543 14.667,6.667 4.786,0.11 9.811,-2.092 13.333,-5.333 2.925,-2.692 5.333,-6.691 5.333,-10.667 0,-4.969 -3.483,-9.518 -6.667,-13.333 -2.848,-3.412 -7.08,-5.375 -10.667,-8 -3.085,-2.258 -6.416,-4.195 -9.333,-6.667 -2.878,-2.438 -5.865,-4.891 -8,-8 -2.478,-3.608 -4,-5.333 -5.333,-12" />
                                <path
                                   style="fill:#000000"
                                   id="path15161"
                                   d="m 260,742.36 c -1.333,6.667 -2.855,8.392 -5.333,12 -2.135,3.109 -5.122,5.562 -8,8 -2.917,2.471 -6.248,4.408 -9.333,6.667 -3.586,2.625 -7.819,4.588 -10.667,8 -3.184,3.815 -6.667,8.364 -6.667,13.333 0,3.975 2.408,7.975 5.333,10.667 3.523,3.241 8.548,5.444 13.333,5.333 5.369,-0.124 10.8,-2.94 14.667,-6.667 2.862,-2.758 5.333,-10.667 5.333,-10.667 v 2.667 c 0,1.333 -0.133,7.29 -1.333,10.667 -1.404,3.951 -3.83,7.579 -6.667,10.667 -3.01,3.273 -10.667,8 -10.667,8 v 1.333 c 0,0 10.612,-2.221 16,-2.667 2.658,-0.22 5.342,-0.22 8,0 5.388,0.446 16,2.667 16,2.667 v -1.333 c 0,0 -7.66,-4.727 -10.667,-8 -2.836,-3.088 -5.263,-6.716 -6.667,-10.667 -1.2,-3.376 -1.333,-10.667 -1.333,-10.667 v -2.667 c 0,0 2.471,7.908 5.333,10.667 3.867,3.726 9.298,6.543 14.667,6.667 4.786,0.11 9.811,-2.092 13.333,-5.333 2.925,-2.692 5.333,-6.691 5.333,-10.667 0,-4.969 -3.483,-9.518 -6.667,-13.333 -2.848,-3.412 -7.08,-5.375 -10.667,-8 -3.085,-2.258 -6.416,-4.195 -9.333,-6.667 -2.878,-2.438 -5.865,-4.891 -8,-8 -2.478,-3.608 -4,-5.333 -5.333,-12" />
                                <path
                                   style="fill:#000000"
                                   id="path15163"
                                   d="m 180,912.36 c -1.333,-6.667 -2.855,-8.392 -5.333,-12 -2.135,-3.109 -5.122,-5.562 -8,-8 -2.917,-2.471 -6.248,-4.408 -9.333,-6.667 -3.586,-2.625 -7.819,-4.588 -10.667,-8 -3.184,-3.815 -6.667,-8.364 -6.667,-13.333 0,-3.975 2.408,-7.975 5.333,-10.667 3.523,-3.241 8.548,-5.444 13.333,-5.333 5.369,0.124 10.8,2.94 14.667,6.667 2.862,2.758 5.333,10.667 5.333,10.667 v -2.667 c 0,-1.333 -0.133,-7.29 -1.333,-10.667 -1.404,-3.951 -3.83,-7.579 -6.667,-10.667 -3.01,-3.273 -10.667,-8 -10.667,-8 v -1.333 c 0,0 10.612,2.221 16,2.667 2.658,0.22 5.342,0.22 8,0 5.388,-0.446 16,-2.667 16,-2.667 v 1.333 c 0,0 -7.66,4.727 -10.667,8 -2.836,3.088 -5.263,6.716 -6.667,10.667 -1.2,3.376 -1.333,10.667 -1.333,10.667 v 2.667 c 0,0 2.471,-7.908 5.333,-10.667 3.867,-3.726 9.298,-6.543 14.667,-6.667 4.786,-0.11 9.811,2.092 13.333,5.333 2.925,2.692 5.333,6.691 5.333,10.667 0,4.969 -3.483,9.518 -6.667,13.333 -2.848,3.412 -7.08,5.375 -10.667,8 -3.085,2.258 -6.416,4.195 -9.333,6.667 -2.878,2.438 -5.865,4.891 -8,8 -2.478,3.608 -4,5.333 -5.333,12" />
                                <path
                                   style="fill:#000000"
                                   id="path15165"
                                   d="m 100,1002.4 c -1.333,-6.667 -2.855,-8.392 -5.333,-12 -2.135,-3.109 -5.122,-5.562 -8,-8 -2.917,-2.471 -6.248,-4.408 -9.333,-6.667 -3.586,-2.625 -7.819,-4.588 -10.667,-8 -3.184,-3.85 -6.667,-8.4 -6.667,-13.37 0,-3.975 2.408,-7.975 5.333,-10.667 3.523,-3.241 8.548,-5.444 13.333,-5.333 5.369,0.124 10.8,2.94 14.667,6.667 2.862,2.758 5.333,10.667 5.333,10.667 v -2.667 c 0,-1.333 -0.133,-7.29 -1.333,-10.667 -1.404,-3.951 -3.83,-7.579 -6.667,-10.667 -3.01,-3.273 -10.667,-8 -10.667,-8 v -1.333 c 0,0 10.612,2.221 16,2.667 2.658,0.22 5.342,0.22 8,0 5.388,-0.446 16,-2.667 16,-2.667 v 1.333 c 0,0 -7.66,4.727 -10.667,8 -2.836,3.088 -5.263,6.716 -6.667,10.667 -1.2,3.376 -1.333,10.667 -1.333,10.667 v 2.667 c 0,0 2.471,-7.908 5.333,-10.667 3.867,-3.726 9.298,-6.543 14.667,-6.667 4.786,-0.11 9.811,2.092 13.333,5.333 2.925,2.692 5.333,6.691 5.333,10.667 0,4.969 -3.483,9.518 -6.667,13.333 -2.848,3.412 -7.08,5.375 -10.667,8 -3.085,2.258 -6.416,4.195 -9.333,6.667 -2.878,2.438 -5.865,4.891 -8,8 -2.478,3.608 -4,5.333 -5.333,12" />
                                <path
                                   style="fill:#000000"
                                   id="path15167"
                                   d="m 260,1002.4 c -1.333,-6.667 -2.855,-8.392 -5.333,-12 -2.135,-3.109 -5.122,-5.562 -8,-8 -2.917,-2.471 -6.248,-4.408 -9.333,-6.667 -3.586,-2.625 -7.819,-4.588 -10.667,-8 C 223.483,963.918 220,959.369 220,954.4 c 0,-3.975 2.408,-7.975 5.333,-10.667 3.523,-3.241 8.548,-5.444 13.333,-5.333 5.369,0.124 10.8,2.94 14.667,6.667 2.862,2.758 5.333,10.667 5.333,10.667 v -2.667 c 0,-1.333 -0.133,-7.29 -1.333,-10.667 -1.404,-3.951 -3.83,-7.579 -6.667,-10.667 -3.01,-3.273 -10.667,-8 -10.667,-8 V 922.4 c 0,0 10.612,2.221 16,2.667 2.658,0.22 5.342,0.22 8,0 5.388,-0.446 16,-2.667 16,-2.667 v 1.333 c 0,0 -7.66,4.727 -10.667,8 -2.836,3.088 -5.263,6.716 -6.667,10.667 -1.2,3.376 -1.333,10.667 -1.333,10.667 v 2.667 c 0,0 2.471,-7.908 5.333,-10.667 3.867,-3.726 9.298,-6.543 14.667,-6.667 4.786,-0.11 9.811,2.092 13.333,5.333 2.925,2.692 5.333,6.691 5.333,10.667 0,4.969 -3.483,9.518 -6.667,13.333 -2.848,3.412 -7.08,5.375 -10.667,8 -3.085,2.258 -6.416,4.195 -9.333,6.667 -2.878,2.438 -5.865,4.891 -8,8 -2.478,3.608 -4,5.333 -5.333,12" />
                                <path
                                   style="fill:#000000"
                                   id="path15169"
                                   d="m 30,602.36 c -0.5,2.5 -1.071,3.147 -2,4.5 -0.801,1.166 -1.921,2.086 -3,3 -1.094,0.927 -2.343,1.653 -3.5,2.5 -1.345,0.984 -2.932,1.72 -4,3 -1.194,1.431 -2.5,3.137 -2.5,5 0,1.491 0.903,2.991 2,4 1.321,1.215 3.205,2.041 5,2 2.01,-0.046 4.05,-1.103 5.5,-2.5 1.073,-1.034 2,-4 2,-4 v 1 c 0,0.5 -0.05,2.734 -0.5,4 -0.527,1.482 -1.436,2.842 -2.5,4 -1.127,1.227 -4,3 -4,3 v 0.5 c 0,0 3.979,-0.833 6,-1 0.997,-0.082 2,-0.082 3,0 2.02,0.167 6,1 6,1 v -0.5 c 0,0 -2.873,-1.773 -4,-3 -1.064,-1.158 -1.973,-2.518 -2.5,-4 -0.45,-1.266 -0.5,-4 -0.5,-4 v -1 c 0,0 0.927,2.966 2,4 1.45,1.397 3.487,2.454 5.5,2.5 1.795,0.041 3.679,-0.785 5,-2 1.097,-1.01 2,-2.509 2,-4 0,-1.863 -1.306,-3.569 -2.5,-5 -1.068,-1.28 -2.655,-2.02 -4,-3 -1.157,-0.847 -2.406,-1.573 -3.5,-2.5 -1.079,-0.914 -2.199,-1.834 -3,-3 -0.929,-1.353 -1.5,-2 -2,-4.5" />
                                <path
                                   style="fill:#000000"
                                   id="path15171"
                                   d="m 330,962.36 c -0.5,-2.5 -1.071,-3.147 -2,-4.5 -0.801,-1.166 -1.921,-2.086 -3,-3 -1.094,-0.927 -2.343,-1.653 -3.5,-2.5 -1.345,-0.984 -2.932,-1.72 -4,-3 -1.194,-1.431 -2.5,-3.137 -2.5,-5 0,-1.491 0.903,-2.991 2,-4 1.321,-1.215 3.205,-2.041 5,-2 2.01,0.046 4.05,1.103 5.5,2.5 1.073,1.034 2,4 2,4 v -1 c 0,-0.5 -0.05,-2.734 -0.5,-4 -0.527,-1.482 -1.436,-2.842 -2.5,-4 -1.127,-1.227 -4,-3 -4,-3 v -0.5 c 0,0 3.979,0.833 6,1 0.997,0.082 2,0.082 3,0 2.02,-0.167 6,-1 6,-1 v 0.5 c 0,0 -2.873,1.773 -4,3 -1.064,1.158 -1.973,2.518 -2.5,4 -0.45,1.266 -0.5,4 -0.5,4 v 1 c 0,0 0.927,-2.966 2,-4 1.45,-1.397 3.487,-2.454 5.5,-2.5 1.795,-0.041 3.679,0.785 5,2 1.097,1.01 2,2.509 2,4 0,1.863 -1.306,3.569 -2.5,5 -1.068,1.28 -2.655,2.02 -4,3 -1.157,0.847 -2.406,1.573 -3.5,2.5 -1.079,0.914 -2.199,1.834 -3,3 -0.929,1.353 -1.5,2 -2,4.5" />
                                </g>
                                </g>
                                </g>
                                </g>
                                </g>
                                </g>
                                </g>
                                </g>
                                </g>
                                </g>
                                </g>
                                </g>
                                </g>
                                </g>
                                </g>
                                </g>
                              </g>
                            </g>
                          </g>
                        </g>
                      </g>
                    </g>
                  </g>
                </g>
              </g>
            </g>
          </g>
        </g>
      </g>
    </g>
  </g>
</svg>
