<?xml version="1.0" encoding="UTF-8" standalone="no"?>
<svg
   xmlns:dc="http://purl.org/dc/elements/1.1/"
   xmlns:cc="http://creativecommons.org/ns#"
   xmlns:rdf="http://www.w3.org/1999/02/22-rdf-syntax-ns#"
   xmlns:svg="http://www.w3.org/2000/svg"
   xmlns="http://www.w3.org/2000/svg"
   xmlns:sodipodi="http://sodipodi.sourceforge.net/DTD/sodipodi-0.dtd"
   xmlns:inkscape="http://www.inkscape.org/namespaces/inkscape"
   sodipodi:docname="card10.svg"
   inkscape:version="1.0 (4035a4fb49, 2020-05-01)"
   id="svg8"
   version="1.1"
   viewBox="0 0 95 143"
   height="143mm"
   width="95mm">
  <defs
     id="defs2" />
  <sodipodi:namedview
     inkscape:window-maximized="0"
     inkscape:window-y="17"
     inkscape:window-x="240"
     inkscape:window-height="967"
     inkscape:window-width="1577"
     showgrid="false"
     inkscape:document-rotation="0"
     inkscape:current-layer="g5165"
     inkscape:document-units="mm"
     inkscape:cy="273.3274"
     inkscape:cx="135.0741"
     inkscape:zoom="0.98994949"
     inkscape:pageshadow="2"
     inkscape:pageopacity="0.0"
     borderopacity="1.0"
     bordercolor="#666666"
     pagecolor="#ffffff"
     id="base" />
  <metadata
     id="metadata5">
    <rdf:RDF>
      <cc:Work
         rdf:about="">
        <dc:format>image/svg+xml</dc:format>
        <dc:type
           rdf:resource="http://purl.org/dc/dcmitype/StillImage" />
        <dc:title></dc:title>
      </cc:Work>
    </rdf:RDF>
  </metadata>
  <g
     id="layer1"
     inkscape:groupmode="layer"
     inkscape:label="Calque 1">
    <g
       transform="matrix(0.26458333,0,0,0.26458333,5.8514384e-7,-135.56191)"
       id="g540">
      <g
         transform="translate(0.81730886,0.72088049)"
         id="g568">
        <g
           id="g15385">
          <g
             id="g2065">
            <g
               id="g1415"
               fill="#ff5555">
              <g
                 id="g12769">
                <g
                   id="g5165"
                   transform="translate(0.49999417,-0.49999931)">
                  <g
                     transform="translate(-31.510151,1740.46)"
                     id="g879"
                     fill="#ff5555">
                    <path
                       id="path869"
                       d="m 50,-1197.6 v 5 h 7.6 v 45 h 5 v -45 H 70 v -5 H 57.6 Z" />
                    <path
                       id="path871"
                       d="m 210,-997.64 c 0,0 8,13.333 17.333,22.667 9.333,9.333 22.667,17.333 22.667,17.333 0,0 -13.333,8 -22.667,17.333 -9.33,9.34 -17.33,22.67 -17.33,22.67 0,0 -8,-13.333 -17.333,-22.667 -9.34,-9.33 -22.67,-17.33 -22.67,-17.33 0,0 13.333,-8 22.667,-17.333 9.33,-9.34 17.33,-22.67 17.33,-22.67" />
                    <path
                       id="path873"
                       d="m 360,-807.64 c 0,0 3,5 6.5,8.5 3.5,3.5 8.5,6.5 8.5,6.5 0,0 -5,3 -8.5,6.5 -3.5,3.5 -6.5,8.5 -6.5,8.5 0,0 -3,-5 -6.5,-8.5 -3.5,-3.5 -8.5,-6.5 -8.5,-6.5 0,0 5,-3 8.5,-6.5 3.5,-3.5 6.5,-8.5 6.5,-8.5" />
                    <path
                       id="path875"
                       d="m 60,-1137.6 c 0,0 3,5 6.5,8.5 3.5,3.5 8.5,6.5 8.5,6.5 0,0 -5,3 -8.5,6.5 -3.5,3.5 -6.5,8.5 -6.5,8.5 0,0 -3,-5 -6.5,-8.5 -3.5,-3.5 -8.5,-6.5 -8.5,-6.5 0,0 5,-3 8.5,-6.5 3.5,-3.5 6.5,-8.5 6.5,-8.5" />
                    <path
                       id="path877"
                       d="m 350,-717.64 v -5 h 7.6 v -45 h 5 v 45 h 7.4 v 5 h -12.4 z" />
                  </g>
                </g>
              </g>
            </g>
          </g>
        </g>
      </g>
    </g>
  </g>
</svg>
