<?xml version="1.0" encoding="UTF-8" standalone="no"?>
<svg
   xmlns:dc="http://purl.org/dc/elements/1.1/"
   xmlns:cc="http://creativecommons.org/ns#"
   xmlns:rdf="http://www.w3.org/1999/02/22-rdf-syntax-ns#"
   xmlns:svg="http://www.w3.org/2000/svg"
   xmlns="http://www.w3.org/2000/svg"
   xmlns:sodipodi="http://sodipodi.sourceforge.net/DTD/sodipodi-0.dtd"
   xmlns:inkscape="http://www.inkscape.org/namespaces/inkscape"
   sodipodi:docname="card24.svg"
   inkscape:version="1.0 (4035a4fb49, 2020-05-01)"
   id="svg8"
   version="1.1"
   viewBox="0 0 95 143"
   height="143mm"
   width="95mm">
  <defs
     id="defs2" />
  <sodipodi:namedview
     inkscape:window-maximized="0"
     inkscape:window-y="17"
     inkscape:window-x="240"
     inkscape:window-height="967"
     inkscape:window-width="1577"
     showgrid="false"
     inkscape:document-rotation="0"
     inkscape:current-layer="g15425"
     inkscape:document-units="mm"
     inkscape:cy="319.36927"
     inkscape:cx="135.0741"
     inkscape:zoom="0.98994949"
     inkscape:pageshadow="2"
     inkscape:pageopacity="0.0"
     borderopacity="1.0"
     bordercolor="#666666"
     pagecolor="#ffffff"
     id="base" />
  <metadata
     id="metadata5">
    <rdf:RDF>
      <cc:Work
         rdf:about="">
        <dc:format>image/svg+xml</dc:format>
        <dc:type
           rdf:resource="http://purl.org/dc/dcmitype/StillImage" />
        <dc:title></dc:title>
      </cc:Work>
    </rdf:RDF>
  </metadata>
  <g
     id="layer1"
     inkscape:groupmode="layer"
     inkscape:label="Calque 1">
    <g
       transform="matrix(0.26458333,0,0,0.26458333,5.8514384e-7,-135.56191)"
       id="g540">
      <g
         transform="translate(0.81730886,0.72088049)"
         id="g568">
        <g
           id="g15385">
          <g
             id="g2065">
            <g
               id="g1415"
               fill="#ff5555">
              <g
                 id="g12769">
                <g
                   id="g5165"
                   transform="translate(0.49999417,-0.49999931)">
                  <g
                     id="g1255"
                     transform="translate(-0.49999691,0.50000051)">
                    <g
                       id="g1313"
                       transform="translate(-0.19794838,0.00605326)">
                      <g
                         id="g1345"
                         transform="translate(0.19794908,-0.00604905)">
                        <g
                           id="g15507">
                          <g
                             id="g3473"
                             transform="translate(-1.0101538)">
                            <g
                               id="g12055"
                               transform="translate(1.0101527)">
                              <g
                                 id="g10671"
                                 stroke="#000000">
                                <g
                                   id="g6761"
                                   transform="translate(0.49999995,-0.50000536)">
                                <g
                                   id="g5177"
                                   stroke="#000000">
                                <g
                                   id="g895"
                                   transform="translate(-29.999995,1170)">
                                <g
                                   id="g1053"
                                   transform="translate(29.499993,-1169.5)">
                                <g
                                   id="g1079">
                                <g
                                   id="g1107"
                                   transform="translate(1.0101543)">
                                <g
                                   id="g1137"
                                   transform="translate(-1.0101518)">
                                <g
                                   id="g15425">
                                <g
                                   style="fill:#000000"
                                   id="g15393"
                                   transform="translate(5,22.362)">
                                <path
                                   style="fill:#000000"
                                   id="path15389"
                                   d="m 10,80 -5,7 v 7 l 5,-7 v 43 h 5 V 80 h -5"
                                   transform="translate(0,440)" />
                                <path
                                   style="fill:#000000"
                                   id="path15391"
                                   d="m 30,520 c -5.54,0 -10,4.46 -10,10 v 30 c 0,5.54 4.46,10 10,10 5.54,0 10,-4.46 10,-10 v -30 c 0,-5.54 -4.46,-10 -10,-10 m 0,5 c 2.77,0 5,2.23 5,5 v 30 c 0,2.77 -2.23,5 -5,5 -2.77,0 -5,-2.23 -5,-5 v -30 c 0,-2.77 2.23,-5 5,-5" />
                                </g>
                                <g
                                   style="fill:#000000"
                                   id="g15399"
                                   transform="rotate(180,177.5,771.2)">
                                <path
                                   style="fill:#000000"
                                   id="path15395"
                                   d="m 10,80 -5,7 v 7 l 5,-7 v 43 h 5 V 80 h -5"
                                   transform="translate(0,440)" />
                                <path
                                   style="fill:#000000"
                                   id="path15397"
                                   d="m 30,520 c -5.54,0 -10,4.46 -10,10 v 30 c 0,5.54 4.46,10 10,10 5.54,0 10,-4.46 10,-10 v -30 c 0,-5.54 -4.46,-10 -10,-10 m 0,5 c 2.77,0 5,2.23 5,5 v 30 c 0,2.77 -2.23,5 -5,5 -2.77,0 -5,-2.23 -5,-5 v -30 c 0,-2.77 2.23,-5 5,-5" />
                                </g>
                                <path
                                   style="fill:#000000"
                                   id="path15401"
                                   d="m 100,562.37 c -3.999,-0.082 -6.667,1.333 -9.333,4 -2.667,2.667 -4,5.333 -4,9.333 0,4 1.518,6.372 4,9.333 2.375,2.833 4,4 5.333,6.666 1.333,2.667 2.667,8 2.667,10.666 v 4 H 96 c -2.667,0 -8,-2.667 -9.333,-4 l -4,-4 c -2.667,-2.667 -5.333,-4 -9.333,-4 -4,0 -6.667,1.333 -9.333,4 -2.667,2.667 -4,5.333 -4,9.333 0,4 1.333,6.666 4,9.333 2.667,2.667 5.333,4 9.333,4 4,0 6.667,-1.333 9.333,-4 l 4,-4 c 1.333,-1.333 6.667,-4 9.333,-4 h 2.667 c -0.066,3.776 -0.346,10.37 -1.333,13.333 -1.333,4 -4,8 -6.667,10.666 -2.667,2.667 -10.667,8 -10.667,8 v 1.333 c 0,0 13.333,-2.667 16,-2.667 h 8 c 2.667,0 16,2.667 16,2.667 v -1.333 c 0,0 -8,-5.333 -10.667,-8 -2.667,-2.667 -5.333,-6.666 -6.667,-10.666 -0.988,-2.963 -1.267,-9.557 -1.333,-13.333 h 2.67 c 2.667,0 8,2.667 9.333,4 l 4,4 c 2.667,2.667 5.333,4 9.333,4 4,0 6.667,-1.333 9.333,-4 2.667,-2.667 4,-5.333 4,-9.333 0,-4 -1.333,-6.666 -4,-9.333 -2.667,-2.667 -5.333,-4 -9.333,-4 -4,0 -6.667,1.333 -9.333,4 l -4,4 c -1.333,1.333 -6.667,4 -9.333,4 h -2.667 v -4 c 0,-2.667 1.333,-8 2.667,-10.666 1.333,-2.667 2.667,-4 5.333,-6.666 2.653,-2.653 4,-5.333 4,-9.333 0,-4 -1.333,-6.666 -4,-9.333 -2.667,-2.667 -5.333,-4 -9.333,-4" />
                                <path
                                   style="fill:#000000"
                                   id="path15403"
                                   d="m 260,562.37 c -3.999,-0.082 -6.667,1.333 -9.333,4 -2.667,2.667 -4,5.333 -4,9.333 0,4 1.518,6.372 4,9.333 2.375,2.833 4,4 5.333,6.666 1.333,2.667 2.667,8 2.667,10.666 v 4 h -2.67 c -2.667,0 -8,-2.667 -9.333,-4 l -4,-4 c -2.667,-2.667 -5.333,-4 -9.333,-4 -4,0 -6.667,1.333 -9.333,4 -2.667,2.667 -4,5.333 -4,9.333 0,4 1.333,6.666 4,9.333 2.667,2.667 5.333,4 9.333,4 4,0 6.667,-1.333 9.333,-4 l 4,-4 c 1.333,-1.333 6.667,-4 9.333,-4 h 2.667 c -0.066,3.776 -0.346,10.37 -1.333,13.333 -1.333,4 -4,8 -6.667,10.666 -2.667,2.667 -10.667,8 -10.667,8 v 1.333 c 0,0 13.333,-2.667 16,-2.667 h 8 c 2.667,0 16,2.667 16,2.667 v -1.333 c 0,0 -8,-5.333 -10.667,-8 -2.667,-2.667 -5.333,-6.666 -6.667,-10.666 -0.988,-2.963 -1.267,-9.557 -1.333,-13.333 H 264 c 2.667,0 8,2.667 9.333,4 l 4,4 c 2.667,2.667 5.333,4 9.333,4 4,0 6.667,-1.333 9.333,-4 2.667,-2.667 4,-5.333 4,-9.333 0,-4 -1.333,-6.666 -4,-9.333 -2.667,-2.667 -5.333,-4 -9.333,-4 -4,0 -6.667,1.333 -9.333,4 l -4,4 c -1.333,1.333 -6.667,4 -9.333,4 h -2.667 v -4 c 0,-2.667 1.333,-8 2.667,-10.666 1.333,-2.667 2.667,-4 5.333,-6.666 2.653,-2.653 4,-5.333 4,-9.333 0,-4 -1.333,-6.666 -4,-9.333 -2.667,-2.667 -5.333,-4 -9.333,-4" />
                                <path
                                   style="fill:#000000"
                                   id="path15405"
                                   d="m 180,622.37 c -3.999,-0.082 -6.667,1.333 -9.333,4 -2.667,2.667 -4,5.333 -4,9.333 0,4 1.518,6.372 4,9.333 2.375,2.833 4,4 5.333,6.666 1.333,2.667 2.667,8 2.667,10.666 v 4 h -2.67 c -2.667,0 -8,-2.667 -9.333,-4 l -4,-4 c -2.667,-2.667 -5.333,-4 -9.333,-4 -4,0 -6.667,1.333 -9.333,4 -2.667,2.667 -4,5.333 -4,9.333 0,4 1.333,6.666 4,9.333 2.667,2.667 5.333,4 9.333,4 4,0 6.667,-1.333 9.333,-4 l 4,-4 c 1.333,-1.333 6.667,-4 9.333,-4 h 2.667 c -0.066,3.776 -0.346,10.37 -1.333,13.333 -1.333,4 -4,8 -6.667,10.666 -2.667,2.667 -10.667,8 -10.667,8 v 1.333 c 0,0 13.333,-2.667 16,-2.667 h 8 c 2.667,0 16,2.667 16,2.667 v -1.333 c 0,0 -8,-5.333 -10.667,-8 -2.667,-2.667 -5.333,-6.666 -6.667,-10.666 -0.988,-2.963 -1.267,-9.557 -1.333,-13.333 H 184 c 2.667,0 8,2.667 9.333,4 l 4,4 c 2.667,2.667 5.333,4 9.333,4 4,0 6.667,-1.333 9.333,-4 2.667,-2.667 4,-5.333 4,-9.333 0,-4 -1.333,-6.666 -4,-9.333 -2.667,-2.667 -5.333,-4 -9.333,-4 -4,0 -6.667,1.333 -9.333,4 l -4,4 c -1.333,1.333 -6.667,4 -9.333,4 h -2.667 v -4 c 0,-2.667 1.333,-8 2.667,-10.666 1.333,-2.667 2.667,-4 5.333,-6.666 2.653,-2.653 4,-5.333 4,-9.333 0,-4 -1.333,-6.666 -4,-9.333 -2.667,-2.667 -5.333,-4 -9.333,-4" />
                                <path
                                   style="fill:#000000"
                                   id="path15407"
                                   d="m 100,682.37 c -3.999,-0.082 -6.667,1.333 -9.333,4 -2.667,2.667 -4,5.333 -4,9.333 0,4 1.518,6.372 4,9.333 2.375,2.833 4,4 5.333,6.666 1.333,2.667 2.667,8 2.667,10.666 v 4 H 96 c -2.667,0 -8,-2.667 -9.333,-4 l -4,-4 c -2.667,-2.667 -5.333,-4 -9.333,-4 -4,0 -6.667,1.333 -9.333,4 -2.667,2.667 -4,5.333 -4,9.333 0,4 1.333,6.666 4,9.333 2.667,2.667 5.333,4 9.333,4 4,0 6.667,-1.333 9.333,-4 l 4,-4 c 1.333,-1.333 6.667,-4 9.333,-4 h 2.667 c -0.066,3.776 -0.346,10.37 -1.333,13.333 -1.333,4 -4,8 -6.667,10.666 -2.667,2.667 -10.667,8 -10.667,8 v 1.333 c 0,0 13.333,-2.667 16,-2.667 h 8 c 2.667,0 16,2.667 16,2.667 v -1.333 c 0,0 -8,-5.333 -10.667,-8 -2.667,-2.667 -5.333,-6.666 -6.667,-10.666 -0.988,-2.963 -1.267,-9.557 -1.333,-13.333 h 2.67 c 2.667,0 8,2.667 9.333,4 l 4,4 c 2.667,2.667 5.333,4 9.333,4 4,0 6.667,-1.333 9.333,-4 2.667,-2.667 4,-5.333 4,-9.333 0,-4 -1.333,-6.666 -4,-9.333 -2.667,-2.667 -5.333,-4 -9.333,-4 -4,0 -6.667,1.333 -9.333,4 l -4,4 c -1.333,1.333 -6.667,4 -9.333,4 h -2.667 v -4 c 0,-2.667 1.333,-8 2.667,-10.666 1.333,-2.667 2.667,-4 5.333,-6.666 2.653,-2.653 4,-5.333 4,-9.333 0,-4 -1.333,-6.666 -4,-9.333 -2.667,-2.667 -5.333,-4 -9.333,-4" />
                                <path
                                   style="fill:#000000"
                                   id="path15409"
                                   d="m 260,682.37 c -3.999,-0.082 -6.667,1.333 -9.333,4 -2.667,2.667 -4,5.333 -4,9.333 0,4 1.518,6.372 4,9.333 2.375,2.833 4,4 5.333,6.666 1.333,2.667 2.667,8 2.667,10.666 v 4 h -2.67 c -2.667,0 -8,-2.667 -9.333,-4 l -4,-4 c -2.667,-2.667 -5.333,-4 -9.333,-4 -4,0 -6.667,1.333 -9.333,4 -2.667,2.667 -4,5.333 -4,9.333 0,4 1.333,6.666 4,9.333 2.667,2.667 5.333,4 9.333,4 4,0 6.667,-1.333 9.333,-4 l 4,-4 c 1.333,-1.333 6.667,-4 9.333,-4 h 2.667 c -0.066,3.776 -0.346,10.37 -1.333,13.333 -1.333,4 -4,8 -6.667,10.666 -2.667,2.667 -10.667,8 -10.667,8 v 1.333 c 0,0 13.333,-2.667 16,-2.667 h 8 c 2.667,0 16,2.667 16,2.667 v -1.333 c 0,0 -8,-5.333 -10.667,-8 -2.667,-2.667 -5.333,-6.666 -6.667,-10.666 -0.988,-2.963 -1.267,-9.557 -1.333,-13.333 H 264 c 2.667,0 8,2.667 9.333,4 l 4,4 c 2.667,2.667 5.333,4 9.333,4 4,0 6.667,-1.333 9.333,-4 2.667,-2.667 4,-5.333 4,-9.333 0,-4 -1.333,-6.666 -4,-9.333 -2.667,-2.667 -5.333,-4 -9.333,-4 -4,0 -6.667,1.333 -9.333,4 l -4,4 c -1.333,1.333 -6.667,4 -9.333,4 h -2.667 v -4 c 0,-2.667 1.333,-8 2.667,-10.666 1.333,-2.667 2.667,-4 5.333,-6.666 2.653,-2.653 4,-5.333 4,-9.333 0,-4 -1.333,-6.666 -4,-9.333 -2.667,-2.667 -5.333,-4 -9.333,-4" />
                                <path
                                   style="fill:#000000"
                                   id="path15411"
                                   d="m 180,942.36 c -3.999,0.082 -6.667,-1.333 -9.333,-4 -2.667,-2.667 -4,-5.333 -4,-9.333 0,-4 1.518,-6.372 4,-9.333 2.375,-2.833 4,-4 5.333,-6.666 1.333,-2.667 2.667,-8 2.667,-10.666 v -4 h -2.67 c -2.667,0 -8,2.667 -9.333,4 l -4,4 c -2.667,2.667 -5.333,4 -9.333,4 -4,0 -6.667,-1.333 -9.333,-4 -2.667,-2.667 -4,-5.333 -4,-9.333 0,-4 1.333,-6.666 4,-9.333 2.667,-2.667 5.333,-4 9.333,-4 4,0 6.667,1.333 9.333,4 l 4,4 c 1.333,1.333 6.667,4 9.333,4 h 2.667 c -0.066,-3.776 -0.346,-10.37 -1.333,-13.333 -1.333,-4 -4,-8 -6.667,-10.666 -2.667,-2.667 -10.667,-8 -10.667,-8 v -1.333 c 0,0 13.333,2.667 16,2.667 h 8 c 2.667,0 16,-2.667 16,-2.667 v 1.333 c 0,0 -8,5.333 -10.667,8 -2.667,2.667 -5.333,6.666 -6.667,10.666 -0.988,2.963 -1.267,9.557 -1.333,13.333 H 184 c 2.667,0 8,-2.667 9.333,-4 l 4,-4 c 2.667,-2.667 5.333,-4 9.333,-4 4,0 6.667,1.333 9.333,4 2.667,2.667 4,5.333 4,9.333 0,4 -1.333,6.666 -4,9.333 -2.667,2.667 -5.333,4 -9.333,4 -4,0 -6.667,-1.333 -9.333,-4 l -4,-4 c -1.333,-1.333 -6.667,-4 -9.333,-4 h -2.667 v 4 c 0,2.667 1.333,8 2.667,10.666 1.333,2.667 2.667,4 5.333,6.666 2.653,2.653 4,5.333 4,9.333 0,4 -1.333,6.666 -4,9.333 -2.667,2.667 -5.333,4 -9.333,4" />
                                <path
                                   style="fill:#000000"
                                   id="path15413"
                                   d="m 260,1002.4 c -3.999,0.082 -6.667,-1.333 -9.333,-4 -2.667,-2.667 -4,-5.333 -4,-9.333 0,-4 1.518,-6.372 4,-9.333 2.375,-2.833 4,-4 5.333,-6.666 1.333,-2.667 2.667,-8 2.667,-10.666 v -4 h -2.67 c -2.667,0 -8,2.667 -9.333,4 l -4,4 c -2.667,2.667 -5.333,4 -9.333,4 -4,0 -6.667,-1.333 -9.333,-4 -2.667,-2.667 -4,-5.333 -4,-9.333 0,-4 1.333,-6.666 4,-9.333 2.667,-2.667 5.333,-4 9.333,-4 4,0 6.667,1.333 9.333,4 l 4,4 c 1.333,1.333 6.667,4 9.333,4 h 2.667 c -0.066,-3.776 -0.346,-10.37 -1.333,-13.333 -1.333,-4 -4,-8 -6.667,-10.666 -2.667,-2.667 -10.667,-8 -10.667,-8 v -1.333 c 0,0 13.333,2.667 16,2.667 h 8 c 2.667,0 16,-2.667 16,-2.667 v 1.333 c 0,0 -8,5.333 -10.667,8 -2.667,2.667 -5.333,6.666 -6.667,10.666 -0.988,2.963 -1.267,9.557 -1.333,13.333 H 264 c 2.667,0 8,-2.667 9.333,-4 l 4,-4 c 2.667,-2.667 5.333,-4 9.333,-4 4,0 6.667,1.333 9.333,4 2.667,2.667 4,5.333 4,9.333 0,4 -1.333,6.666 -4,9.333 -2.667,2.667 -5.333,4 -9.333,4 -4,0 -6.667,-1.333 -9.333,-4 l -4,-4 c -1.333,-1.333 -6.667,-4 -9.333,-4 h -2.667 v 4 c 0,2.667 1.333,8 2.667,10.666 1.333,2.667 2.667,4 5.333,6.666 2.653,2.653 4,5.333 4,9.333 0,4 -1.333,6.666 -4,9.333 -2.667,2.667 -5.333,4 -9.333,4" />
                                <path
                                   style="fill:#000000"
                                   id="path15415"
                                   d="m 100,882.36 c -3.999,0.082 -6.667,-1.333 -9.333,-4 -2.667,-2.667 -4,-5.333 -4,-9.333 0,-4 1.518,-6.372 4,-9.333 2.375,-2.833 4,-4 5.333,-6.666 1.333,-2.667 2.667,-8 2.667,-10.666 v -4 H 96 c -2.667,0 -8,2.667 -9.333,4 l -4,4 c -2.667,2.667 -5.333,4 -9.333,4 -4,0 -6.667,-1.333 -9.333,-4 -2.667,-2.667 -4,-5.333 -4,-9.333 0,-4 1.333,-6.666 4,-9.333 2.667,-2.667 5.333,-4 9.333,-4 4,0 6.667,1.333 9.333,4 l 4,4 c 1.333,1.333 6.667,4 9.333,4 h 2.667 c -0.066,-3.776 -0.346,-10.37 -1.333,-13.333 -1.333,-4 -4,-8 -6.667,-10.666 C 88,809.037 80,803.707 80,803.707 v -1.333 c 0,0 13.333,2.667 16,2.667 h 8 c 2.667,0 16,-2.667 16,-2.667 v 1.333 c 0,0 -8,5.333 -10.667,8 -2.667,2.667 -5.333,6.666 -6.667,10.666 -0.988,2.963 -1.267,9.557 -1.333,13.333 h 2.67 c 2.667,0 8,-2.667 9.333,-4 l 4,-4 c 2.667,-2.667 5.333,-4 9.333,-4 4,0 6.667,1.333 9.333,4 2.667,2.667 4,5.333 4,9.333 0,4 -1.333,6.666 -4,9.333 -2.667,2.667 -5.333,4 -9.333,4 -4,0 -6.667,-1.333 -9.333,-4 l -4,-4 c -1.333,-1.333 -6.667,-4 -9.333,-4 h -2.667 v 4 c 0,2.667 1.333,8 2.667,10.666 1.333,2.667 2.667,4 5.333,6.666 2.653,2.653 4,5.333 4,9.333 0,4 -1.333,6.666 -4,9.333 -2.667,2.667 -5.333,4 -9.333,4" />
                                <path
                                   style="fill:#000000"
                                   id="path15417"
                                   d="m 260,882.36 c -3.999,0.082 -6.667,-1.333 -9.333,-4 -2.667,-2.667 -4,-5.333 -4,-9.333 0,-4 1.518,-6.372 4,-9.333 2.375,-2.833 4,-4 5.333,-6.666 1.333,-2.667 2.667,-8 2.667,-10.666 v -4 h -2.67 c -2.667,0 -8,2.667 -9.333,4 l -4,4 c -2.667,2.667 -5.333,4 -9.333,4 -4,0 -6.667,-1.333 -9.333,-4 -2.667,-2.667 -4,-5.333 -4,-9.333 0,-4 1.333,-6.666 4,-9.333 2.667,-2.667 5.333,-4 9.333,-4 4,0 6.667,1.333 9.333,4 l 4,4 c 1.333,1.333 6.667,4 9.333,4 h 2.667 c -0.066,-3.776 -0.346,-10.37 -1.333,-13.333 -1.333,-4 -4,-8 -6.667,-10.666 -2.667,-2.667 -10.667,-8 -10.667,-8 v -1.333 c 0,0 13.333,2.667 16,2.667 h 8 c 2.667,0 16,-2.667 16,-2.667 v 1.333 c 0,0 -8,5.333 -10.667,8 -2.667,2.667 -5.333,6.666 -6.667,10.666 -0.988,2.963 -1.267,9.557 -1.333,13.333 H 264 c 2.667,0 8,-2.667 9.333,-4 l 4,-4 c 2.667,-2.667 5.333,-4 9.333,-4 4,0 6.667,1.333 9.333,4 2.667,2.667 4,5.333 4,9.333 0,4 -1.333,6.666 -4,9.333 -2.667,2.667 -5.333,4 -9.333,4 -4,0 -6.667,-1.333 -9.333,-4 l -4,-4 c -1.333,-1.333 -6.667,-4 -9.333,-4 h -2.667 v 4 c 0,2.667 1.333,8 2.667,10.666 1.333,2.667 2.667,4 5.333,6.666 2.653,2.653 4,5.333 4,9.333 0,4 -1.333,6.666 -4,9.333 -2.667,2.667 -5.333,4 -9.333,4" />
                                <path
                                   style="fill:#000000"
                                   id="path15419"
                                   d="m 100,1002.4 c -3.999,0.082 -6.667,-1.333 -9.333,-4 -2.667,-2.667 -4,-5.333 -4,-9.333 0,-4 1.518,-6.372 4,-9.333 2.375,-2.833 4,-4 5.333,-6.666 1.333,-2.667 2.667,-8 2.667,-10.666 v -4 H 96 c -2.667,0 -8,2.667 -9.333,4 l -4,4 c -2.667,2.667 -5.333,4 -9.333,4 -4,0 -6.667,-1.333 -9.333,-4 -2.667,-2.667 -4,-5.333 -4,-9.333 0,-4 1.333,-6.666 4,-9.333 2.667,-2.667 5.333,-4 9.333,-4 4,0 6.667,1.333 9.333,4 l 4,4 c 1.333,1.333 6.667,4 9.333,4 h 2.667 c -0.066,-3.776 -0.346,-10.37 -1.333,-13.333 -1.333,-4 -4,-8 -6.667,-10.666 C 88,929.037 80,923.707 80,923.707 v -1.333 c 0,0 13.333,2.667 16,2.667 h 8 c 2.667,0 16,-2.667 16,-2.667 v 1.333 c 0,0 -8,5.333 -10.667,8 -2.667,2.667 -5.333,6.666 -6.667,10.666 -0.988,2.963 -1.267,9.557 -1.333,13.333 h 2.67 c 2.667,0 8,-2.667 9.333,-4 l 4,-4 c 2.667,-2.667 5.333,-4 9.333,-4 4,0 6.667,1.333 9.333,4 2.667,2.667 4,5.333 4,9.333 0,4 -1.333,6.666 -4,9.333 -2.667,2.667 -5.333,4 -9.333,4 -4,0 -6.667,-1.333 -9.333,-4 l -4,-4 c -1.333,-1.333 -6.667,-4 -9.333,-4 h -2.667 v 4 c 0,2.667 1.333,8 2.667,10.666 1.333,2.667 2.667,4 5.333,6.666 2.653,2.653 4,5.333 4,9.333 0,4 -1.333,6.666 -4,9.333 -2.667,2.667 -5.333,4 -9.333,4" />
                                <path
                                   style="fill:#000000"
                                   id="path15421"
                                   d="m 30,602.36 c -1.5,-0.031 -2.5,0.5 -3.5,1.5 -1,1 -1.5,2 -1.5,3.5 0,1.5 0.569,2.39 1.5,3.5 0.891,1.063 1.5,1.5 2,2.5 0.5,1 1,3 1,4 v 1.5 h -1 c -1,0 -3,-1 -3.5,-1.5 l -1.5,-1.5 c -1,-1 -2,-1.5 -3.5,-1.5 -1.5,0 -2.5,0.5 -3.5,1.5 -1,1 -1.5,2 -1.5,3.5 0,1.5 0.5,2.5 1.5,3.5 1,1 2,1.5 3.5,1.5 1.5,0 2.5,-0.5 3.5,-1.5 l 1.5,-1.5 c 0.5,-0.5 2.5,-1.5 3.5,-1.5 h 1 c -0.025,1.416 -0.13,3.889 -0.5,5 -0.5,1.5 -1.5,3 -2.5,4 -1,1 -4,3 -4,3 v 0.5 c 0,0 5,-1 6,-1 h 3 c 1,0 6,1 6,1 v -0.5 c 0,0 -3,-2 -4,-3 -1,-1 -2,-2.5 -2.5,-4 -0.37,-1.111 -0.475,-3.584 -0.5,-5 h 1 c 1,0 3,1 3.5,1.5 l 1.5,1.5 c 1,1 2,1.5 3.5,1.5 1.5,0 2.5,-0.5 3.5,-1.5 1,-1 1.5,-2 1.5,-3.5 0,-1.5 -0.5,-2.5 -1.5,-3.5 -1,-1 -2,-1.5 -3.5,-1.5 -1.5,0 -2.5,0.5 -3.5,1.5 l -1.5,1.5 c -0.5,0.5 -2.5,1.5 -3.5,1.5 h -1 v -1.5 c 0,-1 0.5,-3 1,-4 0.5,-1 1,-1.5 2,-2.5 0.995,-0.995 1.5,-2 1.5,-3.5 0,-1.5 -0.5,-2.5 -1.5,-3.5 -1,-1 -2,-1.5 -3.5,-1.5" />
                                <path
                                   style="fill:#000000"
                                   id="path15423"
                                   d="m 330,962.36 c -1.5,0.031 -2.5,-0.5 -3.5,-1.5 -1,-1 -1.5,-2 -1.5,-3.5 0,-1.5 0.569,-2.39 1.5,-3.5 0.891,-1.063 1.5,-1.5 2,-2.5 0.5,-1 1,-3 1,-4 v -1.5 h -1 c -1,0 -3,1 -3.5,1.5 l -1.5,1.5 c -1,1 -2,1.5 -3.5,1.5 -1.5,0 -2.5,-0.5 -3.5,-1.5 -1,-1 -1.5,-2 -1.5,-3.5 0,-1.5 0.5,-2.5 1.5,-3.5 1,-1 2,-1.5 3.5,-1.5 1.5,0 2.5,0.5 3.5,1.5 l 1.5,1.5 c 0.5,0.5 2.5,1.5 3.5,1.5 h 1 c -0.025,-1.416 -0.13,-3.889 -0.5,-5 -0.5,-1.5 -1.5,-3 -2.5,-4 -1,-1 -4,-3 -4,-3 v -0.5 c 0,0 5,1 6,1 h 3 c 1,0 6,-1 6,-1 v 0.5 c 0,0 -3,2 -4,3 -1,1 -2,2.5 -2.5,4 -0.37,1.111 -0.475,3.584 -0.5,5 h 1 c 1,0 3,-1 3.5,-1.5 l 1.5,-1.5 c 1,-1 2,-1.5 3.5,-1.5 1.5,0 2.5,0.5 3.5,1.5 1,1 1.5,2 1.5,3.5 0,1.5 -0.5,2.5 -1.5,3.5 -1,1 -2,1.5 -3.5,1.5 -1.5,0 -2.5,-0.5 -3.5,-1.5 l -1.5,-1.5 c -0.5,-0.5 -2.5,-1.5 -3.5,-1.5 h -1 v 1.5 c 0,1 0.5,3 1,4 0.5,1 1,1.5 2,2.5 0.995,0.995 1.5,2 1.5,3.5 0,1.5 -0.5,2.5 -1.5,3.5 -1,1 -2,1.5 -3.5,1.5" />
                                </g>
                                </g>
                                </g>
                                </g>
                                </g>
                                </g>
                                </g>
                                </g>
                              </g>
                            </g>
                          </g>
                        </g>
                      </g>
                    </g>
                  </g>
                </g>
              </g>
            </g>
          </g>
        </g>
      </g>
    </g>
  </g>
</svg>
