<?xml version="1.0" encoding="UTF-8" standalone="no"?>
<svg
   xmlns:dc="http://purl.org/dc/elements/1.1/"
   xmlns:cc="http://creativecommons.org/ns#"
   xmlns:rdf="http://www.w3.org/1999/02/22-rdf-syntax-ns#"
   xmlns:svg="http://www.w3.org/2000/svg"
   xmlns="http://www.w3.org/2000/svg"
   xmlns:sodipodi="http://sodipodi.sourceforge.net/DTD/sodipodi-0.dtd"
   xmlns:inkscape="http://www.inkscape.org/namespaces/inkscape"
   width="70mm"
   height="70mm"
   viewBox="0 0 70 70"
   version="1.1"
   id="svg8"
   inkscape:version="1.0 (4035a4fb49, 2020-05-01)"
   sodipodi:docname="coeur.svg">
  <defs
     id="defs2" />
  <sodipodi:namedview
     id="base"
     pagecolor="#ffffff"
     bordercolor="#666666"
     borderopacity="1.0"
     inkscape:pageopacity="0.0"
     inkscape:pageshadow="2"
     inkscape:zoom="0.98994949"
     inkscape:cx="328.4546"
     inkscape:cy="272.88688"
     inkscape:document-units="mm"
     inkscape:current-layer="layer1"
     inkscape:document-rotation="0"
     showgrid="false"
     inkscape:window-width="1577"
     inkscape:window-height="967"
     inkscape:window-x="87"
     inkscape:window-y="4"
     inkscape:window-maximized="0" />
  <metadata
     id="metadata5">
    <rdf:RDF>
      <cc:Work
         rdf:about="">
        <dc:format>image/svg+xml</dc:format>
        <dc:type
           rdf:resource="http://purl.org/dc/dcmitype/StillImage" />
        <dc:title />
      </cc:Work>
    </rdf:RDF>
  </metadata>
  <g
     inkscape:label="Calque 1"
     inkscape:groupmode="layer"
     id="layer1">
    <rect
       style="fill:#ffffff;stroke:#ffffff;stroke-width:0.233747"
       id="rect833"
       width="69.766258"
       height="69.766251"
       x="0.1168735"
       y="0.1168735" />
    <path
       id="path28"
       d="m 35.529762,29.293154 c 0,0 0.653521,-4.110179 1.91496,-5.405183 1.261798,-1.295002 3.482332,-1.965353 5.266588,-1.965353 1.784256,0 4.00479,0.670719 5.266588,1.965353 1.261798,1.295004 1.91496,3.573974 1.91496,5.405183 0,1.83121 -0.95766,4.422322 -1.91496,5.405183 -0.95766,0.982861 -1.91496,1.474107 -2.872619,2.456966 -0.95766,0.982862 -1.43631,0.982862 -2.393969,1.965354 l -2.393969,2.456968 c -0.95766,0.982862 -2.393969,2.948216 -3.351269,4.913569 -0.95766,1.965354 -1.43631,4.913567 -1.43631,4.913567 0,0 -0.47865,-2.948213 -1.436309,-4.913567 -0.95766,-1.965353 -2.393969,-3.931076 -3.351269,-4.913569 l -2.393969,-2.456968 c -0.95766,-0.98286 -1.43631,-0.98286 -2.39397,-1.965354 -0.957658,-0.982859 -1.914959,-1.474105 -2.872618,-2.456966 -0.95766,-0.982861 -1.91496,-3.573973 -1.91496,-5.405183 0,-1.831209 0.653521,-4.110179 1.91496,-5.405183 1.261798,-1.295002 3.482332,-1.965353 5.266588,-1.965353 1.784255,0 4.004789,0.670719 5.266587,1.965353 1.261798,1.295004 1.91496,5.405183 1.91496,5.405183"
       style="stroke-width:0.363771;fill:#ff0000" />
  </g>
</svg>
