<?xml version="1.0" encoding="UTF-8" standalone="no"?>
<svg
   xmlns:dc="http://purl.org/dc/elements/1.1/"
   xmlns:cc="http://creativecommons.org/ns#"
   xmlns:rdf="http://www.w3.org/1999/02/22-rdf-syntax-ns#"
   xmlns:svg="http://www.w3.org/2000/svg"
   xmlns="http://www.w3.org/2000/svg"
   xmlns:sodipodi="http://sodipodi.sourceforge.net/DTD/sodipodi-0.dtd"
   xmlns:inkscape="http://www.inkscape.org/namespaces/inkscape"
   sodipodi:docname="suite.svg"
   inkscape:version="1.0 (4035a4fb49, 2020-05-01)"
   id="svg8"
   version="1.1"
   viewBox="0 0 70 70"
   height="70mm"
   width="70mm">
  <defs
     id="defs2" />
  <sodipodi:namedview
     inkscape:window-maximized="0"
     inkscape:window-y="4"
     inkscape:window-x="87"
     inkscape:window-height="967"
     inkscape:window-width="1577"
     showgrid="false"
     inkscape:document-rotation="0"
     inkscape:current-layer="layer1"
     inkscape:document-units="mm"
     inkscape:cy="67.463061"
     inkscape:cx="222.7088"
     inkscape:zoom="0.98994949"
     inkscape:pageshadow="2"
     inkscape:pageopacity="0.0"
     borderopacity="1.0"
     bordercolor="#666666"
     pagecolor="#ffffff"
     id="base" />
  <metadata
     id="metadata5">
    <rdf:RDF>
      <cc:Work
         rdf:about="">
        <dc:format>image/svg+xml</dc:format>
        <dc:type
           rdf:resource="http://purl.org/dc/dcmitype/StillImage" />
        <dc:title></dc:title>
      </cc:Work>
    </rdf:RDF>
  </metadata>
  <g
     id="layer1"
     inkscape:groupmode="layer"
     inkscape:label="Calque 1">
    <path
       style="fill:none;stroke:#000000;stroke-width:1.10976px;stroke-linecap:butt;stroke-linejoin:miter;stroke-opacity:1"
       d="M 16.154618,30.033222 Z"
       id="path898-4" />
    <path
       id="path973"
       d="M 17.539952,61.474381 C 14.288023,60.251809 13.961983,59.145467 10.072767,36.136397 6.2102939,13.285508 6.1766549,12.687774 8.6324449,10.539616 9.8463469,9.477776 11.573769,9.090968 22.514538,7.431096 36.174301,5.358709 36.996119,5.392356 39.117223,8.110847 c 1.034157,1.325413 1.688297,4.432326 4.884009,23.197301 3.577311,21.005722 3.665145,21.727114 2.87804,23.639734 -1.220156,2.964917 -3.308478,3.666785 -16.39761,5.511108 -8.81995,1.242763 -11.729666,1.471071 -12.94171,1.015391 z"
       style="fill:#ffffff;fill-opacity:1;stroke:#000000;stroke-width:0.614356;stroke-opacity:1" />
    <path
       style="fill:#ffffff;fill-opacity:1;stroke:#000000;stroke-width:0.614356;stroke-opacity:1"
       d="M 21.057153,57.60339 C 18.108774,55.765778 18.006436,54.616943 18.713303,31.292196 19.415309,8.1278 19.49975,7.535112 22.329701,5.911274 c 1.398857,-0.80267 3.168608,-0.84258 14.22226,-0.320701 13.800702,0.651569 14.599887,0.846158 16.145597,3.928211 0.753621,1.502751 0.784639,4.67763 0.23157,23.704743 -0.619112,21.29916 -0.674713,22.023753 -1.822223,23.744468 -1.778857,2.667428 -3.964366,2.945355 -17.160757,2.182292 C 25.053929,58.63605 22.156063,58.288299 21.057157,57.603402 Z"
       id="path973-4" />
    <path
       style="fill:#ffffff;fill-opacity:1;stroke:#000000;stroke-width:0.614356;stroke-opacity:1"
       d="m 23.747747,57.81739 c -2.511574,-2.40036 -2.377434,-3.545916 3.072104,-26.236131 5.412079,-22.534223 5.61564,-23.097232 8.71731,-24.109708 1.533173,-0.500471 3.273853,-0.178554 13.988685,2.58693 13.377675,3.452797 14.120362,3.806302 15.004936,7.138846 0.431264,1.624874 -0.185978,4.739337 -4.608347,23.253636 -4.950482,20.725111 -5.152704,21.423124 -6.627059,22.873613 -2.285536,2.248517 -4.481787,2.074824 -17.245115,-1.363871 -8.600388,-2.317174 -11.3664,-3.248687 -12.302506,-4.143327 z"
       id="path973-1" />
    <text
       transform="rotate(-12.386726)"
       id="text1066"
       y="21.853373"
       x="6.392837"
       style="font-size:8.54691px;line-height:1.25;font-family:sans-serif;stroke-width:0.582742"
       xml:space="preserve"><tspan
         style="stroke-width:0.582742"
         y="21.853373"
         x="6.392837"
         id="tspan1064"
         sodipodi:role="line">7</tspan></text>
    <text
       xml:space="preserve"
       style="font-size:8.54691px;line-height:1.25;font-family:sans-serif;stroke-width:0.582742"
       x="24.93445"
       y="13.518502"
       id="text1066-5"
       transform="rotate(3.1501619)"><tspan
         sodipodi:role="line"
         id="tspan1064-0"
         x="24.93445"
         y="13.518502"
         style="stroke-width:0.582742">8</tspan></text>
    <text
       xml:space="preserve"
       style="font-size:8.54691px;line-height:1.25;font-family:sans-serif;stroke-width:0.582742"
       x="38.758541"
       y="6.3166766"
       id="text1066-9"
       transform="rotate(15.805953)"><tspan
         sodipodi:role="line"
         id="tspan1064-6"
         x="38.758541"
         y="6.3166766"
         style="stroke-width:0.582742">9</tspan></text>
  </g>
</svg>
