<?xml version="1.0" encoding="UTF-8" standalone="no"?>
<svg
   xmlns:dc="http://purl.org/dc/elements/1.1/"
   xmlns:cc="http://creativecommons.org/ns#"
   xmlns:rdf="http://www.w3.org/1999/02/22-rdf-syntax-ns#"
   xmlns:svg="http://www.w3.org/2000/svg"
   xmlns="http://www.w3.org/2000/svg"
   xmlns:sodipodi="http://sodipodi.sourceforge.net/DTD/sodipodi-0.dtd"
   xmlns:inkscape="http://www.inkscape.org/namespaces/inkscape"
   width="70mm"
   height="70mm"
   viewBox="0 0 70 70"
   version="1.1"
   id="svg8"
   inkscape:version="1.0 (4035a4fb49, 2020-05-01)"
   sodipodi:docname="trefle.svg">
  <defs
     id="defs2" />
  <sodipodi:namedview
     id="base"
     pagecolor="#ffffff"
     bordercolor="#666666"
     borderopacity="1.0"
     inkscape:pageopacity="0.0"
     inkscape:pageshadow="2"
     inkscape:zoom="0.98994949"
     inkscape:cx="389.54375"
     inkscape:cy="319.09349"
     inkscape:document-units="mm"
     inkscape:current-layer="layer1"
     inkscape:document-rotation="0"
     showgrid="false"
     inkscape:window-width="1577"
     inkscape:window-height="967"
     inkscape:window-x="69"
     inkscape:window-y="4"
     inkscape:window-maximized="0" />
  <metadata
     id="metadata5">
    <rdf:RDF>
      <cc:Work
         rdf:about="">
        <dc:format>image/svg+xml</dc:format>
        <dc:type
           rdf:resource="http://purl.org/dc/dcmitype/StillImage" />
        <dc:title />
      </cc:Work>
    </rdf:RDF>
  </metadata>
  <g
     inkscape:label="Calque 1"
     inkscape:groupmode="layer"
     id="layer1">
    <rect
       y="0.1168735"
       x="0.11687507"
       height="69.766251"
       width="69.766258"
       id="rect833"
       style="fill:#ffffff;stroke:#ffffff;stroke-width:0.233747" />
    <path
       d="m 34.839758,19.785738 c -1.473736,-0.02908 -2.456975,0.478652 -3.439475,1.436314 -0.982877,0.957661 -1.474113,1.914964 -1.474113,3.351277 0,1.436312 0.559417,2.288046 1.474113,3.351276 0.875249,1.01727 1.474112,1.436313 1.965363,2.393617 0.49125,0.95766 0.982876,2.872624 0.982876,3.829929 v 1.43631 h -0.983977 c -0.982876,0 -2.948239,-0.95766 -3.43949,-1.43631 l -1.474112,-1.436315 c -0.982877,-0.957662 -1.965364,-1.436312 -3.43949,-1.436312 -1.474113,0 -2.45699,0.47865 -3.439476,1.436312 -0.982877,0.957665 -1.474127,1.914965 -1.474127,3.351275 0,1.43631 0.49125,2.39362 1.474127,3.35128 0.982862,0.95766 1.965363,1.43631 3.439476,1.43631 1.474126,0 2.456989,-0.47865 3.43949,-1.43631 l 1.474112,-1.43631 c 0.491251,-0.47866 2.45699,-1.43632 3.43949,-1.43632 h 0.982863 c -0.02437,1.35588 -0.127587,3.72365 -0.49125,4.78759 -0.491251,1.43632 -1.474113,2.87263 -2.45699,3.82993 -0.982862,0.95766 -3.931102,2.87263 -3.931102,2.87263 v 0.47865 c 0,0 4.913603,-0.95766 5.896479,-0.95766 h 2.948226 c 0.982876,0 5.896479,0.95766 5.896479,0.95766 v -0.47865 c 0,0 -2.948239,-1.91497 -3.931102,-2.87263 -0.982877,-0.95766 -1.965377,-2.39361 -2.456989,-3.82993 -0.36411,-1.06394 -0.466931,-3.43171 -0.491251,-4.78759 h 0.982863 c 0.982876,0 2.94824,0.95766 3.43949,1.43632 l 1.474113,1.43631 c 0.982876,0.95766 1.965377,1.43631 3.439489,1.43631 1.474113,0 2.45699,-0.47865 3.43949,-1.43631 0.982863,-0.95766 1.474113,-1.91497 1.474113,-3.35128 0,-1.43631 -0.49125,-2.39361 -1.474113,-3.351275 -0.982876,-0.957662 -1.965377,-1.436312 -3.43949,-1.436312 -1.474112,0 -2.456989,0.47865 -3.439489,1.436312 l -1.474113,1.436315 c -0.49125,0.47865 -2.45699,1.43631 -3.43949,1.43631 h -0.982863 v -1.43631 c 0,-0.957663 0.491251,-2.872627 0.982863,-3.829929 0.49125,-0.957662 0.982876,-1.436314 1.965377,-2.393617 0.977709,-0.952635 1.474113,-1.914964 1.474113,-3.351276 0,-1.436313 -0.49125,-2.393616 -1.474113,-3.351277 -0.982877,-0.957662 -1.965377,-1.436314 -3.43949,-1.436314"
       id="path885"
       style="fill:#000000;stroke-width:0.363773" />
  </g>
</svg>
